PathFileType	4	(X/Y/Z)	5_2_73_p0_0-310.trc
DataRate	CameraRate	NumFrames	NumMarkers	Units	OrigDataRate	OrigDataStartFrame	OrigNumFrames
60.0	60.0	5	27	m	60.0	272	311
Frame#	Time	RHip			RKnee			RAnkle			RBigToe			RSmallToe			RHeel			LHip			LKnee			LAnkle			LBigToe			LSmallToe			LHeel			Neck			Head			Nose			RShoulder			RElbow			RWrist			RThumb			RIndex			RPinky			LShoulder			LElbow			LWrist			LThumb			LIndex			LPinky			
		X1	Y1	Z1	X2	Y2	Z2	X3	Y3	Z3	X4	Y4	Z4	X5	Y5	Z5	X6	Y6	Z6	X7	Y7	Z7	X8	Y8	Z8	X9	Y9	Z9	X10	Y10	Z10	X11	Y11	Z11	X12	Y12	Z12	X13	Y13	Z13	X14	Y14	Z14	X15	Y15	Z15	X16	Y16	Z16	X17	Y17	Z17	X18	Y18	Z18	X19	Y19	Z19	X20	Y20	Z20	X21	Y21	Z21	X22	Y22	Z22	X23	Y23	Z23	X24	Y24	Z24	X25	Y25	Z25	X26	Y26	Z26	X27	Y27	Z27	
272	4.533333333333333	0.3888687403977223	0.547722618937389	0.798837259946372	0.4016270015299484	0.6402994438459085	1.2414663863328983	0.41633048351040314	0.7647134096666062	1.6565664520912182	0.37717812476774504	0.5708428572599803	1.6766381304025197	0.4260624881646533	0.6189090240236342	1.6804687218248078	0.39801431584683067	0.8729933610275962	1.7425617567985652	0.20766658994745762	0.5087787169234593	0.819299867885428	0.21002486869505724	0.6029965508697054	1.2591174347060303	0.2236996585948368	0.8058505250009922	1.7100115489248695	0.22644762233847385	0.5657052728524417	1.7009566095951365	0.17456262023838892	0.6318564102783089	1.7073550033345073	0.23002869779600885	0.8674575724820875	1.7589982844850864	0.2317987735485963	0.48409480007570777	0.30128574777690764	0.21417676335042146	0.43759272602644544	0.05074332431502614	0.24987757280842215	0.37212392019298884	0.20109835490529926	0.3893618881574577	0.5571702534637579	0.3628404322638301	0.4603290541208266	0.5165501519811324	0.602068970104464	0.5646169846954893	0.4006759786805443	0.8163894292721795	0.5421992456475804	0.3043986555835414	0.9283107632583956	0.5658538428716579	0.30693584588378475	0.9265576937245594	0.5866684988986614	0.40261924410227123	0.9353352385467428	0.09619990497340311	0.4635737604318991	0.3990927779477754	0.09738282226151847	0.4933670383584254	0.648746497386436	0.06574999721935787	0.3243698467471329	0.8370649807598466	0.03968758683743835	0.23663917871737875	0.8955591374994782	0.009485458817329115	0.2569486332712393	0.922358052111604	0.00028610569764531927	0.3582331144539682	0.9464823365967213
273	4.55	0.3916809971368318	0.5203987317028637	0.7946708602470133	0.40072696972359895	0.6379804141896905	1.237163092226228	0.41528873433701224	0.761595879714374	1.651010618333373	0.37802490620829476	0.569656076997172	1.671764959835507	0.4285296397885948	0.632056113684022	1.685409400135539	0.3970919437529739	0.8703239510737122	1.7373419506416536	0.20712069544302744	0.5067102231658995	0.8149820788178185	0.20391662569595229	0.6174967792519691	1.2637345331581493	0.22371967577694724	0.8057942843712632	1.7099002701906538	0.23402096830084818	0.5633129210148129	1.6986835717936015	0.17452461294196084	0.6311942110763039	1.7068973725379413	0.22753625240610673	0.876253947652219	1.7623515177462765	0.23185088516528493	0.48410396737685535	0.3012988302293935	0.21411519627018485	0.43763044508002785	0.05075063106489184	0.24989813184175125	0.3720957547844922	0.20127109537799684	0.38950733504748686	0.5560674948478085	0.35952330655691267	0.455913067447514	0.5325743793669818	0.6074754141092819	0.5597532351583986	0.41313944648346645	0.8191195096768927	0.5414048784957688	0.302155830257418	0.9241305005101597	0.5584866795317734	0.2963776112407816	0.9290676190032209	0.5774209548437816	0.4263941584872178	0.9399854011836283	0.09617216649712873	0.4637383942644791	0.39900194708166536	0.09724565334799032	0.4934500057763265	0.6487486221413004	0.06586819003160321	0.3239984854221801	0.8369397266013212	0.03973398301469254	0.2364396691588456	0.8953803574733912	0.0092289946934542	0.2548822749751239	0.9184106339417358	0.006212149013318737	0.3468564520730631	0.9439760940740671
274	4.566666666666666	0.38770608144986307	0.5185985490175913	0.794868371866344	0.40068255041605044	0.6377782995702836	1.2369701405249074	0.4153199704605147	0.7616749762041688	1.6511203083680015	0.3770221602411021	0.5706534431739383	1.6767986678486269	0.42614755554903905	0.618918778158714	1.6805526150667616	0.39808308355465155	0.8727182605305218	1.7423166733274555	0.20712548848260348	0.5066705990660474	0.8148403187105275	0.20389542399115498	0.6177780818799508	1.2636939914358356	0.2228737817602503	0.8073192945240728	1.7057868984320743	0.22800798372166567	0.5476138388826478	1.6931975164609976	0.174560307572011	0.6316668999949064	1.7071885054361797	0.22559480833842716	0.8621991539320962	1.7569794253453184	0.23183532722339908	0.4840881751203848	0.30132153235964637	0.21408355511999866	0.43770059108607007	0.0507440604290436	0.24987565461360323	0.3720895640731268	0.2013724851954689	0.3887507298703447	0.5574554281635048	0.35892964919301035	0.45239174584618586	0.5186717429717914	0.6030778574253662	0.5594640712042379	0.41263301296400845	0.8191866038303502	0.5420339651483664	0.3037572331689899	0.9283473086002825	0.5545121590110719	0.2954809838742777	0.9295131457978687	0.5776304102699562	0.429761699672222	0.9476322616754592	0.09619460961748749	0.4638472685002993	0.3989390413011873	0.0914196524617373	0.5052825712814678	0.6471016572627148	0.06612161997591975	0.32383989545801234	0.8367841710412602	0.03965510308528947	0.22549683747232666	0.8896594588349034	0.015632602869941288	0.2319485578040757	0.9106302168860476	0.005754499605265787	0.3480955025771614	0.9408462915071625
275	4.583333333333333	0.38765684477881585	0.5184722245578328	0.7948660001807303	0.4006389748302717	0.6378385374841802	1.237162677648885	0.4161216980072983	0.7597821828852158	1.6463121254464228	0.3779743817506146	0.5692795482864108	1.6717856926550185	0.42870150585017025	0.632122645414321	1.685666224058774	0.3971641600371769	0.8705949329398798	1.7374264290527224	0.20707942904856969	0.5067394578560543	0.8145974143184076	0.20372630862461197	0.6174953190077326	1.2636731443053655	0.22365053687301992	0.8057756514585818	1.7099973311039494	0.22176278679408834	0.5619169800375935	1.7002575382576197	0.17436333851577068	0.6316601867330272	1.7071694180567993	0.2284167763057127	0.8749673038336849	1.7571194425586423	0.23180116357670186	0.48432102758029794	0.3012894552519435	0.21384338987139112	0.43627686466717414	0.0479154747762685	0.24997380040592218	0.3720090528842656	0.2013980924791076	0.38826143538484337	0.5549862404354919	0.3516508006611181	0.45155179551349495	0.5167488024041365	0.5989866979727513	0.5521989922821202	0.40122563921248744	0.8218910037855228	0.5311311835031306	0.30377722341549296	0.9299777761456404	0.5461424103043488	0.30537093062010695	0.9322416865492806	0.5732296312539279	0.4431513039699741	0.9511340759633403	0.09600711895816112	0.4639372967714088	0.39900197180443103	0.09068677769935704	0.49091887372029197	0.642351455509478	0.0773505197854927	0.32584130877551487	0.8324168514048953	0.041069801657577724	0.2332293953752213	0.883827082111864	0.027643276769345367	0.21733826734602102	0.9029663838493569	0.023133891833218935	0.338906630564595	0.9343229076526643
276	4.6	0.38778040678164866	0.5180831621437723	0.7946679081477277	0.3999311856948836	0.6388440625467179	1.2332025862130696	0.4160506628565075	0.7599827989762146	1.6461757797627745	0.373072568365705	0.5847837045771327	1.678556430341464	0.42834202958374473	0.6318521534109407	1.6849650670298013	0.39905028400410886	0.8706054920122963	1.737157946358633	0.2152191027853464	0.5055365236142718	0.809926627668172	0.20375688579272652	0.6179757642973532	1.2636505336766861	0.22375513812565392	0.8056741224855121	1.7097214923406165	0.22787744480818053	0.5467725691688359	1.692777539199533	0.17301344096890084	0.6179460763320105	1.7015321512193786	0.22931404305171105	0.8729971598652355	1.7608675797681672	0.23184966505259838	0.4842117199672862	0.30130347666473717	0.2137501953538994	0.4363961560551477	0.04786562380749096	0.2500108321064065	0.3719725370377227	0.2012515926271728	0.3939500953926146	0.5434934681888672	0.35855331149522063	0.45194997017590777	0.5191062668699435	0.6028349587557329	0.5402761083855732	0.4133862602278445	0.824901343151588	0.5351445753830817	0.2919706990070997	0.9273610900427909	0.5465851530794044	0.292781695361913	0.9299551606472628	0.5669177969288827	0.4449114956819546	0.9532193172035215	0.09634733611603662	0.46344433358897913	0.3955122641637317	0.0906541982121521	0.4908493656291202	0.6425839550298721	0.07758781610634247	0.3258531419849508	0.8323171348411513	0.05041734740725353	0.22606024916429188	0.880910742081083	0.033265029680815586	0.2045881863970115	0.8966829984133003	0.035558319805441004	0.3127730366006155	0.9237092692261326
